After losing both her parents, Failan (Cecilia Cheung) emmigrates to Korea to seek her only remaining relatives. Once she reaches Korea, she finds out that her relatives have moved to Canada well over a year ago. Desperate to stay and make a living in Korea, Failan is forced to have an arranged marriage through a match-making agency. Kang Jae (Choi Min Shik) is an old and outdated gangster who has no respect from his peers. Short on money, Kang Jae decides to take on the arranged marriage. Having nothing more than a picture of Kang Jae, Failan spends her days dreaming and wishing that Kang Jae would come to visit her. Failan often writes to Kang Jae in sorrow about how much she misses and thinks about him, but never has the nerve to give the letters to Kang Jae. Things take a turn when Kang Jae is asked by his boss to take the fall for a murder in exchange for some money. The only hope in his worthless life is the wife he never met. FROM IMDb


SUBS: English
 
http://www.imdb.com/title/tt0289181/

General 
Unique ID : 249865943650849370484761644575744630363 (0xBBFA6E27E081E0E1B7BE6B4CCBAC9E5B) 
Complete name : Failan.2001.DVDRip.x264.mkv 
Format : Matroska 
Format version : Version 2 
File size : 1.58 GiB 
Duration : 1h 55mn 
Overall bit rate : 1 958 Kbps 
Encoded date : UTC 2013-03-25 03:11:18 
Writing application : mkvmerge v5.8.0 ('No Sleep / Pillow') built on Sep 2 2012 15:37:04 
Writing library : libebml v1.2.3 + libmatroska v1.3.0 

Video 
ID : 1 
Format : AVC 
Format/Info : Advanced Video Codec 
Format profile : High@L3.1 
Format settings, CABAC : Yes 
Format settings, ReFrames : 12 frames 
Codec ID : V_MPEG4/ISO/AVC 
Duration : 1h 55mn 
Bit rate : 1 727 Kbps 
Width : 716 pixels 
Height : 480 pixels 
Display aspect ratio : 16:9 
Original display aspect ratio : 16:9 
Frame rate mode : Constant 
Frame rate : 23.976 fps 
Color space : YUV 
Chroma subsampling : 4:2:0 
Bit depth : 8 bits 
Scan type : Progressive 
Bits/(Pixel*Frame) : 0.210 
Stream size : 1.39 GiB (88%) 
Writing library : x264 core 129 r2245 bc13772 
Encoding settings : cabac=1 / ref=12 / deblock=1:-3:-3 / analyse=0x3:0x133 / me=umh / subme=11 / psy=1 / psy_rd=1.15:0.00 / mixed_ref=1 / me_range=32 / chroma_me=1 / trellis=2 / 8x8dct=1 / cqm=0 / deadzone=21,11 / fast_pskip=0 / chroma_qp_offset=-2 / threads=12 / lookahead_threads=2 / sliced_threads=0 / nr=0 / decimate=1 / interlaced=0 / bluray_compat=0 / constrained_intra=0 / bframes=10 / b_pyramid=2 / b_adapt=2 / b_bias=0 / direct=3 / weightb=1 / open_gop=0 / weightp=2 / keyint=250 / keyint_min=23 / scenecut=40 / intra_refresh=0 / rc_lookahead=60 / rc=crf / mbtree=1 / crf=16.8 / qcomp=0.60 / qpmin=0 / qpmax=69 / qpstep=4 / ip_ratio=1.40 / aq=1:0.80 
Language : English 
Default : Yes 
Forced : No 

Audio 
ID : 2 
Format : AC-3 
Format/Info : Audio Coding 3 
Mode extension : CM (complete main) 
Format settings, Endianness : Big 
Codec ID : A_AC3 
Duration : 1h 55mn 
Bit rate mode : Constant 
Bit rate : 192 Kbps 
Channel(s) : 2 channels 
Channel positions : Front: L R 
Sampling rate : 48.0 KHz 
Bit depth : 16 bits 
Compression mode : Lossy 
Stream size : 158 MiB (10%) 
Default : Yes 
Forced : No 

Text 
ID : 3 
Format : UTF-8 
Codec ID : S_TEXT/UTF8 
Codec ID/Info : UTF-8 Plain Text 
Language : English 
Default : Yes 
Forced : No 

Menu 
00:00:00.000 : en:Chapter 1 
00:02:07.868 : en:Chapter 2 
00:09:04.736 : en:Chapter 3 
00:13:22.337 : en:Chapter 4 
00:16:13.704 : en:Chapter 5 
00:17:58.371 : en:Chapter 6 
00:21:43.371 : en:Chapter 7 
00:26:16.605 : en:Chapter 8 
00:28:09.839 : en:Chapter 9 
00:36:19.339 : en:Chapter 10 
00:38:25.073 : en:Chapter 11 
00:43:48.607 : en:Chapter 12 
00:46:40.341 : en:Chapter 13 
00:50:34.209 : en:Chapter 14 
00:56:02.209 : en:Chapter 15 
01:00:07.576 : en:Chapter 16 
01:09:04.709 : en:Chapter 17 
01:09:56.709 : en:Chapter 18 
01:21:47.276 : en:Chapter 19 
01:28:14.943 : en:Chapter 20 
01:36:25.943 : en:Chapter 21 
01:48:46.010 : en:Chapter 22 
01:50:03.644 : en:Chapter 23 
01:53:11.345 : en:Chapter 24 

My rip.